<?xml version="1.0" encoding="utf-8"?>
<!-- Generator: Adobe Illustrator 24.0.1, SVG Export Plug-In . SVG Version: 6.00 Build 0)  -->
<svg version="1.1" id="Layer_1" xmlns="http://www.w3.org/2000/svg" xmlns:xlink="http://www.w3.org/1999/xlink" x="0px" y="0px"
	 viewBox="0 0 4104 4104" style="enable-background:new 0 0 4104 4104;" xml:space="preserve">
<style type="text/css">
	.st0{fill:#0367A5;}
	.st1{fill:#3CB6AB;}
	.st2{opacity:0.5;fill:#3CB6AB;}
	.st3{fill-rule:evenodd;clip-rule:evenodd;fill:#3CB6AB;}
	.st4{opacity:0.22;}
	.st5{opacity:0.46;fill:#293A8C;}
	.st6{opacity:0.24;fill:none;stroke:#12916D;stroke-width:4.5064;stroke-miterlimit:10;}
	.st7{opacity:0.11;fill:#293A8C;}
	.st8{opacity:0.21;}
	.st9{opacity:0.46;fill:#3E8E28;}
</style>
<g>
	<g>
		<path class="st0" d="M3668.8,1075.2l130.1,511.4c-148.3,92.1-355,253.6-434,325.4c-84.4,76.6-269.9,154.8-328.7,188.2
			c-58.8,33.4-184.8,70.7-233.5,89.9c-44.7,17.6-105.6,62.6-151.2,80.4c-46.3,18.1-125.1,73.9-153.1,92.7
			c-23.7,16-83.1-7.5-74.7-61.3c8.4-53.8,65.6-130.8,106.6-163c49.4-38.8,156.8-69.3,185.6-85.6c32.3-18.3,61-50.8,54.7-78.1
			c-13.5-58.6-161.1-108.6-268.3-158.4c-26.4,17.9-148.2,91.9-172.2,103.9c-23.9,12-39.3,41.5-95.6,57.6
			c-57.8,16.5-85.6-37-69.1-51.7c16.5-14.8,68.7-36.5,89.7-60.1c21-23.5,48.7-39.6,113.9-94.1c-25.1-0.8-107.8,24.2-135.2,38.8
			c-27.5,14.6-98.8,66.8-124.7,92.4c-25.7,25.5-45,63.4-95.6,87.5c-76,36.2-113.7-28.7-100.7-40.9
			c12.9-12.2,107.5-111.3,182.9-170.5c-43.3,15.3-135.3,44.3-170.7,59.2c-35.4,15-97.7,45.4-164.2,47.6
			c-64.1,2.2-84.9-61.3-69.6-81.3c12.2-15.9,120.5-63.6,176-86.4c-24.1-6.9-72-12.8-101.4-26.9c-31.9-15.2-39.3-77.6,5.2-89
			c45.9-11.7,223.3-22.7,278-29.9c54.7-7.2,206-29.6,238.7-27.7c32.8,2,75.4,3.4,125.4,6.5c49.9,3,146.8-11.8,320.9-27.2
			c220.1-17.6,342-29.1,388-48.2c23.9-9.9,29.1-30.3,54.2-44.3c22.8-12.7,40.1,0.3,74.9-20.6
			C3276.5,1396.3,3465,1242.8,3668.8,1075.2z"/>
		<g>
			<g>
				<path class="st1" d="M1761.4,2376l192.6-79c0,0,233.8-171.3,269.8-165.5c36,5.8-111.4,131.5-111.4,131.5l-277.2,173L1761.4,2376
					z"/>
				<path class="st2" d="M1761.4,2376l192.6-79c0,0,233.8-171.3,269.8-165.5c36,5.8-111.4,131.5-111.4,131.5l-277.2,173L1761.4,2376
					z"/>
				<path class="st1" d="M2233.9,2095.4c-81.9,77-150.5,153.8-191.6,179.1c-25.6,15.8-89.1,46.7-149.1,83.3
					c-36.2,22-71,46-95.7,69.9c-65.4,63.6,123.8-29.5,123.8-29.5s219.1-80.2,296-148.8c77-68.7,152.5-122.4,152.1-158.8
					c0-3.2-0.5-6.3-1.3-9.4C2359.5,2048.9,2308.6,2025.1,2233.9,2095.4z"/>
				<path class="st2" d="M2368.1,2081.3c-47.6,20.4-124,89.2-155.5,114.5c-37.7,30.2-70.3,63-122.2,92.3
					c-60.4,34.2-153.9,72.8-153.9,72.8l-43.4-3c-36.2,22-71,46-95.7,69.9c-65.4,63.6,123.8-29.5,123.8-29.5s219.1-80.2,296-148.8
					c77-68.7,152.5-122.4,152.1-158.8C2369.4,2087.4,2369,2084.3,2368.1,2081.3z"/>
				<path class="st1" d="M2361.5,2125.5c-27.7,3.1-63.4,30.2-100.3,59.9c-27,21.7-54.7,44.9-80.4,61.2
					c-60.8,38.7-322.3,165.7-322.3,165.7l243.5,35.3c0,0,162.5-115.9,219-166.9c13.5-12.2,25.5-23.1,36.1-32.8
					c33.9-31.4,53.4-51.8,59.6-68.2C2424.7,2157.8,2409.5,2120,2361.5,2125.5z"/>
				<path class="st1" d="M2036.9,2380.4c0,0-113.6,12.5-173.3-6.8c-5.6-1.8-11.1-3.4-16.6-4.8l-0.1,0c-28.5-7.4-56-9.9-90.4-9.9
					c-29.3,0-63.6,1.6-107.6,3.3c-105.5,4.1-138.5,4.5-175.2-25c-36.7-29.3-33.8-62.3-21.1-95.4c11.4-29.7,85.1-168.8,9.2-232.1
					c-15.5-12.9-38.7-9.2-49.8,7.4c-24.8,37-69.5,103.6-87.7,131.7c-25.9,39.9-43.1,101-78.9,147.5c-24.2,31.5-56.8,54.8-94.2,115
					c-17.7,28.6-36.5,65.5-56,115.6l-59.8,69.4l-13.5,15.7l-22.6,26.2l34.4-7.6l505.2-112.4l278.6-17.2l9.4-5.2L2036.9,2380.4z"/>
				<path class="st2" d="M2036.9,2380.4c0,0-113.6,12.5-173.3-6.8c-5.6-1.8-11.1-3.4-16.6-4.8l-0.1,0c-28.5-7.4-56-9.9-90.4-9.9
					c-156.9,18.3-299.8,16-426,19.4c-70.9,1.9-130.1,15.2-179.3,33c-17.7,28.6-36.5,65.5-56,115.6l-59.8,69.4l487.7-92.2l303.7-8.2
					L2036.9,2380.4z"/>
				<path class="st2" d="M2326.4,2199.9c-22-14.8-42.8-17.9-65.1-14.5c-27,21.7-54.7,44.9-80.4,61.2
					c-60.8,38.7-322.3,165.7-322.3,165.7l243.5,35.3c0,0,162.5-115.9,219-166.9c13.5-12.2,25.5-23.1,36.1-32.8
					C2353.3,2231,2344.8,2212.2,2326.4,2199.9z"/>
				<path class="st1" d="M2321,2280.5L2321,2280.5c-7.2,22.4-152.3,140.7-196.6,170.9c-44.3,30.2-192.4,106.3-278.8,144.5
					c-86.3,38.2-486.3,216.2-486.3,216.2l-4.1,2.7l-132.3,89.2c-103.4-77.8-207-157.9-306.3-241c50.5-27.4,92.7-51.8,123.3-71.8
					c0.1,0,0.1-0.1,0.2-0.1c0.6-0.5,1.1-0.8,1.7-1.2c13.3-8.7,26.1-16.9,38.7-24.5c220.7-135.8,333.7-126,408.8-126.8
					c49.4-0.5,187.3-19.3,304-36.6c14.9-2.2,29.3-4.5,43.3-6.6h0.1c30-4.6,57.2-8.8,79.7-12.5c0.1,0,0.1,0,0.2,0
					c0.9-0.1,1.9-0.3,2.7-0.4h0.1c0.7-0.1,1.5-0.2,2.2-0.4h0.1c14.3-2.2,26.5-4.2,35.8-5.7c18.6-3.1,36.5-8.1,53.5-14
					c0.1-0.1,0.2-0.1,0.3-0.1c19.1-6.8,37-15.1,52.9-23.3c0.2-0.2,0.5-0.3,0.7-0.4c0.1-0.1,0.1-0.1,0.2-0.1h0.1
					c31.4-16.5,55.2-33.2,67.7-40.9c24.6-15.3,86.1-68,86.1-68c16.5-9.9,30.5-15.6,42.4-18.2C2318.8,2199.3,2327,2261.8,2321,2280.5
					z"/>
			</g>
		</g>
		<path class="st3" d="M3225.1,561.7c-421.8-125.7-929.5,26.5-1172.7,569.5c-244.1-543-751.8-695.1-1173.6-569.5
			c-417.5,124.6-699.6,500.5-681,969.3c17.9,450.4,337.8,813.4,718.7,1132c99.4,83.2,202.9,163.2,306.3,241
			c319.9,240.8,638.6,459.8,829.5,679.7c488.2-563.4,1817.4-1121.4,1853.7-2052.8C3924.8,1062.2,3642.6,686.3,3225.1,561.7z
			 M3658.5,1520.4c-39.8,817.2-1244.4,1416-1606.1,2015.6c-142.7-236-416-472-697.2-721.1c-76-67.3-152.6-135.7-227.5-205.2
			c-9.2-8.5-18.3-17-27.3-25.6c-6.6-6.3-13.3-12.5-19.9-18.8c-3.4-3.2-6.6-6.4-10-9.6c-327.3-311.8-606.3-649.2-625-1035.4
			c-17.7-371.5,186.6-665.1,516.5-774.7c394.4-130.9,900.3,21.3,1090.5,482c189.3-460.7,696-612.9,1089.6-482
			C3471.9,855.3,3677.1,1148.9,3658.5,1520.4z"/>
	</g>
	<g class="st4">
		<path class="st5" d="M1671.9,2614c39.6-4.7,79.4-13.4,117.3-25.8c38.5-12.6,72.6-32.6,109.4-48.9c0.8-0.4,1.9,0.7,1.1,1.4
			c-29.9,24.3-69.1,39.6-105.4,51.7c-40,13.4-80.3,20.4-122.4,22.5C1671.3,2615,1671.3,2614,1671.9,2614z"/>
		<path class="st5" d="M1636.6,2631.3c-4.2,1.7-2.7,8.2,2,6.9c9.7-2.6,20.9-1.5,30.2-5.3c1.6-0.7,2.1-2.8,0.5-3.7
			C1659.5,2623.2,1646.4,2627.3,1636.6,2631.3z"/>
		<path class="st5" d="M1701.9,2651.3c-13.6-4.7-30.2-1.2-44.2,1.3c-16.4,3-33,7.2-48.3,13.9c-2.8,1.2-0.7,5.5,2.1,4.8
			c15.1-3.7,29.8-8,45.1-10.5c14.7-2.4,31.6-1.4,45.3-7C1703.1,2653.3,1703.1,2651.7,1701.9,2651.3z"/>
		<path class="st5" d="M1341.4,2826.2c-0.6,1.9,2.3,3.1,3.3,1.4c19.1-36.8,72.1-58.4,106.1-79.8c38.1-24,77-47.4,118.1-65.9
			c0.8-0.3,0.2-1.6-0.6-1.3c-49.8,16.6-93.2,44-137.5,71.8C1400.8,2771.2,1353.8,2790,1341.4,2826.2z"/>
		<path class="st5" d="M1522.4,2684.1c18.6-6.7,36.4-15.4,55-21.9c18.7-6.5,38.3-10.7,56.6-18.2c1.1-0.5,1.1-2.4-0.3-2.3
			c-37.3,2.8-80.8,19.8-112.5,39.5C1519.7,2682.1,1520.7,2684.7,1522.4,2684.1z"/>
		<path class="st5" d="M1533.3,2659.3c32.7-16.6,65.3-24.8,100.7-32.6c2.3-0.5,1.8-4.4-0.6-4.2c-35.6,2.9-70.5,17.2-101.2,34.9
			C1530.9,2658.1,1532,2659.9,1533.3,2659.3z"/>
		<path class="st5" d="M1556.1,2628.3c19.7-8.4,39-10.3,60-13c2.3-0.3,2.3-3.3,0-3.6c-20.7-2.1-42.5,5.4-60.8,14.5
			C1554.1,2626.8,1554.9,2628.8,1556.1,2628.3z"/>
		<path class="st5" d="M1573,2603.6c12,0.4,28.4-2.6,37.9-10.3c0.8-0.6,0.1-2-0.8-2c-6.1,0.3-11.8,2.5-17.6,4
			c-6.6,1.7-13.4,2.8-19.9,4.8C1570.6,2600.7,1571,2603.5,1573,2603.6z"/>
		<path class="st5" d="M1607.5,2576c1-0.3,0.8-1.7-0.3-1.8c-8-0.5-15.6,0.5-23.5,1.8c-2.4,0.4-1.9,4.6,0.6,4.3
			C1592.3,2579.6,1599.9,2578.6,1607.5,2576z"/>
		<path class="st5" d="M1382.4,2769.9c22.9-12.3,44-28.4,66.3-42c22.3-13.5,46.4-24.7,67.6-39.8c0.5-0.4,0.2-1.3-0.5-1.1
			c-24.9,8.1-47.7,22.5-70,36c-22.3,13.4-45.8,27.2-64.9,44.9C1379.7,2768.9,1381.1,2770.6,1382.4,2769.9z"/>
		<path class="st5" d="M1462.1,2694.5c17.6-8.1,34.7-16.4,51.3-26.3c0.8-0.5,0.3-1.9-0.7-1.6c-18,7.4-35,16.1-52.1,25.4
			C1458.9,2692.8,1460.4,2695.2,1462.1,2694.5z"/>
		<path class="st5" d="M1491,2660.9c3.7-2.1,7.4-4.2,11.1-6.3c1.1-0.6,0.1-2.2-1-1.7c-3.9,1.8-7.8,3.5-11.8,5.3
			C1487.6,2659,1489.2,2661.9,1491,2660.9z"/>
	</g>
	<path class="st6" d="M1066.5,2677.3c0,0,213.3-70.2,337.1-149.8c131.1-84.3,318.9-87,365.2-93.6c131.1-18.7,144,1.4,243.5-74.9"/>
	<path class="st7" d="M1349.8,2527.3c-8.5-0.5-16.5-3.1-23.8-7.2c-0.8-0.4-1.6,0.6-0.8,1.1c13.1,8.3,33.3,13.6,47.6,5.2
		c0.7-0.4,0.5-1.4-0.4-1.3C1364.8,2525.9,1357.5,2527.8,1349.8,2527.3z"/>
	<path class="st7" d="M1295.3,2480.9c6.2,19.4,28,29.1,45.7,35.8c8.6,3.2,17.7,5.7,27,5.2c10.6-0.5,18.4-5.8,28.2-8.7
		c0.6-0.2,0.4-1.1-0.2-1.2c-5.8-0.9-9.4-0.5-14.9,0.5c-12.4,2.3-20.6,3.2-32.9-0.8c-17.1-5.5-41.7-15.5-50.3-32
		C1297,2478.2,1294.7,2479.2,1295.3,2480.9z"/>
	<g class="st8">
		<path class="st9" d="M2231.3,2244.6c-24.6,9-48.8,26.2-66.8,45.1c-0.7,0.7,0.5,1.8,1.2,1.2c20.6-18.4,41.8-31.9,66.3-44.6
			C2233.1,2245.7,2232.4,2244.2,2231.3,2244.6z"/>
		<path class="st9" d="M2221.5,2256.1c-15.4,5.4-30.8,17.6-42.2,28.9c-0.7,0.7,0.2,1.8,0.9,1.2c6.7-5.3,13.2-10.7,20.3-15.5
			c7.1-4.7,14.8-8.4,21.7-13.3C2223.1,2256.9,2222.3,2255.8,2221.5,2256.1z"/>
		<path class="st9" d="M2210.1,2267.7c-5.4,1.2-10,6-13.9,9.7c-1,1,0.3,2.7,1.4,1.7c4.1-3.6,9.5-6.4,13-10.6
			C2210.9,2268.2,2210.6,2267.6,2210.1,2267.7z"/>
		<path class="st9" d="M2208.3,2277.6c3.2-0.8,6.4-2,7.8-5.2c0.2-0.5-0.3-1-0.8-0.8c-2.7,0.9-5,2.6-7.7,3.4
			C2206.1,2275.4,2206.8,2278,2208.3,2277.6z"/>
	</g>
</g>
</svg>
