<?xml version="1.0" encoding="utf-8"?>
<!-- Generator: Adobe Illustrator 24.0.1, SVG Export Plug-In . SVG Version: 6.00 Build 0)  -->
<svg version="1.1" id="Layer_1" xmlns="http://www.w3.org/2000/svg" xmlns:xlink="http://www.w3.org/1999/xlink" x="0px" y="0px"
	 viewBox="0 0 1080 1080" style="enable-background:new 0 0 1080 1080;" xml:space="preserve">
<style type="text/css">
	.st0{display:none;}
	.st1{display:inline;fill-rule:evenodd;clip-rule:evenodd;fill:#003369;}
	.st2{display:inline;fill-rule:evenodd;clip-rule:evenodd;fill:#5DBA47;}
	.st3{fill:#0367A5;}
	.st4{fill:#3CB6AB;}
	.st5{display:inline;}
	.st6{fill:#5DBA47;}
	.st7{font-family:'BABAPROFONT-Bold';}
	.st8{font-size:121.4608px;}
	.st9{fill:#57C0F9;}
	.st10{fill:#003369;}
	.st11{fill:#2D2D2D;}
	.st12{font-family:'MicrosoftSansSerif';}
	.st13{font-size:42.6167px;}
	.st14{opacity:0.5;fill:#3CB6AB;}
	.st15{opacity:0.22;}
	.st16{opacity:0.46;fill:#293A8C;}
	.st17{opacity:0.24;fill:none;stroke:#12916D;stroke-width:0.3641;stroke-miterlimit:10;}
	.st18{fill-rule:evenodd;clip-rule:evenodd;fill:#3CB6AB;}
	.st19{opacity:0.11;fill:#293A8C;}
	.st20{opacity:0.21;}
	.st21{opacity:0.46;fill:#3E8E28;}
	.st22{opacity:0.24;fill:none;stroke:#12916D;stroke-width:0.3102;stroke-miterlimit:10;}
</style>
<g>
	<g>
		<g class="st0">
			<path class="st1" d="M754.6,350.7c27.2-22,28.5-63.6,11.1-96.2c-4-6-8.3-11.5-13-16.8c-36.8-38.6-113.3-23.7-139.1,20.7
				c-11.1,19.2-14,42.9-7.9,65.7c-4.5-54.2,45.5-83.4,91.6-60.2C729.1,280.1,753.1,317.6,754.6,350.7L754.6,350.7z"/>
			<path class="st2" d="M542.9,655.1c15.7-33.7,10.8-74.9-9.8-105.4c-25.1-37.5-70.4-56.7-108.4-85.8c-12.8-9.8-24.9-20.3-35.3-32
				c-38.7-43.5-49.7-101.1-26.8-154.7c17.9-42.2,55.7-75.3,106.3-82.4c-59.3-15.8-121.8,12-153.5,67.8
				c-39.3,68.7-22.8,165.5,29.1,223.2C409.8,558.2,517.8,576.2,542.9,655.1L542.9,655.1z"/>
			<path class="st1" d="M615.8,260.6c25.9-44.4,97.8-57.8,136.9-22.8c-62.9-70.8-182.6-68-214.3,42c-5.3,17.9-7.6,36.5-12.1,53.5
				c-14.5,56.7-72.1,76.2-117.4,43.9c18.1,63.1,101,73.4,143.7,125.5c34.7,42.4,36.6,117.3-9.6,152.5c84.8-31.4,111.8-99,98.9-182.6
				C629.4,390.6,583.3,316.7,615.8,260.6L615.8,260.6z"/>
			<path class="st2" d="M656.4,389.1c29.8,90.5,31.1,166.6-18.7,217.6c84-57.8,148.4-147.6,154.1-249c2.3-41.2-8.1-76-26.1-103.1
				c16.6,32.4,12.5,75.5-11.1,96.2c-14.7,13.2-37,17.5-66.3,5.1C665.8,346.4,647.1,360.7,656.4,389.1L656.4,389.1z"/>
			<path class="st1" d="M643.9,259.4c24.5-35.2,77.6-46.5,108.8-21.6c-39.1-35-111-21.6-136.9,22.8c-11.1,19.2-13,40.7-10.2,63.6
				C603,291.6,620,268.1,643.9,259.4L643.9,259.4z"/>
			<path class="st1" d="M765.7,254.5c9.4,24.3,2.6,51.8-17,68.7c3.4,9.2,5.5,18.4,5.9,27.5C778.2,330,782.3,286.9,765.7,254.5
				L765.7,254.5z"/>
			<path class="st1" d="M549,401.5c38.1-13.9,28.9-41,24.9-73.6c-4.9-41.2,4.7-79.1,30.4-102.8c29.8-27.9,81.9-34.6,117.4-13.7
				c-65.3-41.2-156.3-25.4-183.3,68.3c-5.3,17.9-7.6,36.5-12.1,53.5c-14.5,56.7-72.1,76.2-117.4,43.9
				c15.7,54.6,80.1,69.6,124.6,106.5C506.1,458,511.8,415.3,549,401.5L549,401.5z"/>
			<path class="st2" d="M789.9,317.8c6.8,44.6-13,78.7-60.4,80.2c-14.9,0.6-22.5,9.8-21.1,24.7c6,61.6,3.6,118.2-35.5,157
				c66.3-56.8,114.2-135.1,118.9-221.9C792.5,343.8,791.8,330.4,789.9,317.8L789.9,317.8z"/>
			<path class="st2" d="M403.4,491.7c55.3,42.5,149.9,79.4,139.5,163.4c15.7-33.7,10.8-74.9-9.8-105.4
				c-25.1-37.5-70.4-56.7-108.4-85.8c-12.8-9.8-24.9-20.3-35.3-32c-38.7-43.5-49.7-101.1-26.8-154.7c17.9-42.2,55.7-75.3,106.3-82.4
				c-54.2,0-109.3,29.2-133.7,81.7C301.6,348.1,337.1,441.1,403.4,491.7L403.4,491.7z"/>
			<path class="st1" d="M451.4,248.7c27,0,48.9,21.8,48.9,48.8c0,26.9-21.9,48.8-48.9,48.8s-48.7-21.8-48.7-48.8
				C402.6,270.5,424.4,248.7,451.4,248.7L451.4,248.7z"/>
			<path class="st2" d="M708.1,297.5c15.5,0,27.9,12.4,27.9,28c0,15.4-12.5,27.9-27.9,27.9c-15.5,0-28.1-12.4-28.1-27.9
				C680,309.9,692.7,297.5,708.1,297.5L708.1,297.5z"/>
		</g>
		<g>
			<path class="st3" d="M172.6,718.9l-21.6,33l-21.7-33h-21.9v85.9h20.3v-52.7l13.2,20v32.7h20v-33.4l13-19.7v1.2h20.5v-34H172.6z
				 M173.9,770.3v34.5h20.5v-34.5H173.9z"/>
			<path class="st3" d="M232.2,753.2l0.1,17h22.6v-17H232.2z"/>
			<polygon class="st3" points="279.8,787.3 279.8,804.7 213.8,804.7 213.8,770.3 232.3,770.3 232.3,770.6 232.3,787.3 			"/>
			<polygon class="st3" points="279.8,736.4 232,736.4 232.2,752.9 232.2,753.2 213.8,753.2 213.8,719 279.8,719 			"/>
			<path class="st3" d="M324.6,804.7h-34.1v-85.8h34.1c13.9,0,25,4.1,33.4,12.4c8.6,8.2,12.9,18.3,12.9,30.4
				c0,12-4.3,22.2-12.9,30.6C349.6,800.6,338.5,804.7,324.6,804.7z M324.6,787.1c14.7,0,22.9-8.3,24.7-25c0-15.1-8.2-23.6-24.7-25.5
				h-13.5v50.5H324.6z"/>
			<path class="st3" d="M381.6,718.9h20.6v85.8h-20.6V718.9z"/>
			<path class="st3" d="M476.1,804.8h-63.2v-85.9h20.6v68.1h42.5V804.8z"/>
			<path class="st3" d="M486.7,718.9h20.6v85.8h-20.6V718.9z"/>
			<path class="st3" d="M595.7,804.8h-17.6l-39.6-52v52h-20.4v-85.9h18.8l38.3,50.3v-50.3h20.5V804.8z"/>
			<path class="st3" d="M679.1,804.7h-24.3L627,772.9v31.8h-20.6v-85.8H627v31.8l27.8-31.8h24.3l-37.8,42.9L679.1,804.7z"/>
			<path class="st4" d="M765.4,806.2c-7.9,0-14.6-1.4-20.1-4.2c-5.6-2.8-10.2-6.4-14-10.9l14-13.2c3.4,3.9,6.6,6.7,9.7,8.4
				c3,1.6,6.6,2.4,10.7,2.4c3.1,0,5.8-0.8,7.9-2.6c2.1-1.8,3.1-4.2,3.1-7.4v-0.2c0-3.5-1.4-6.1-4.2-7.8c-2.7-1.8-6.5-2.7-11.5-2.7
				h-8.7l-3-12.3l19.9-20h-33v-16.8h59.4v14.5l-21.4,20.3c2.5,0.5,5.1,1.2,7.9,2.3c2.8,1.1,5.3,2.6,7.5,4.5c2.3,1.9,4,4.3,5.3,7.2
				c1.3,2.8,2,6.1,2,10v0.3c0,4-0.7,7.7-2.2,11c-1.3,3.4-3.4,6.4-6,9c-2.8,2.5-6.1,4.5-10.1,5.9
				C774.7,805.4,770.3,806.2,765.4,806.2z"/>
			<path class="st4" d="M843.3,806.2c-5.8,0-10.7-0.8-14.7-2.4c-4.1-1.6-7.6-3.9-10.6-6.8c-3.2-3.3-5.8-7.4-7.5-12.4
				c-1.9-5-2.8-11.7-2.8-20v-0.2c0-6.6,0.7-12.7,2.2-18.3c1.6-5.6,3.9-10.5,6.9-14.7c3.1-4.2,7.1-7.6,12-10
				c4.9-2.5,10.6-3.7,17.1-3.7c3,0,5.8,0.2,8.2,0.6c2.5,0.5,4.9,1.1,7.1,2c2.2,0.8,4.3,1.8,6.3,3c2,1.2,4,2.6,5.9,4.2L863,742.6
				c-2.1-1.6-3.8-2.8-5-3.7c-1.2-0.8-2.5-1.5-3.9-2.1c-1.2-0.5-2.6-0.9-4.1-1.2c-1.4-0.3-2.9-0.5-4.6-0.5c-2.5,0-4.6,0.4-6.5,1.3
				c-1.8,1-3.4,2.3-4.7,4c-1.3,1.7-2.4,3.8-3.3,6.2c-0.8,2.4-1.3,4.6-1.5,6.5c0.9-0.7,2.8-1.6,5.6-2.7c2.9-1.2,6.5-1.8,10.9-1.8
				s8.5,0.6,12.3,1.8c3.8,1.2,7,3,9.8,5.3c2.7,2.3,4.8,5.2,6.4,8.6c1.5,3.4,2.3,7.3,2.3,11.7v0.2c0,4.4-0.9,8.4-2.6,11.9
				c-1.6,3.6-3.9,6.8-6.9,9.4c-2.9,2.7-6.5,4.8-10.6,6.2C852.5,805.4,848,806.2,843.3,806.2z M842.6,789.4c4.2,0,7.6-1.1,10-3.3
				c2.4-2.3,3.6-5.3,3.6-8.9V777c0-3.6-1.2-6.5-3.7-8.7c-2.5-2.2-5.9-3.3-10.1-3.3c-4.3,0-7.6,1.1-10,3.2c-2.5,2.2-3.7,5.1-3.7,8.7
				v0.2c0,3.6,1.3,6.6,3.8,8.9C835,788.3,838.3,789.4,842.6,789.4z"/>
			<path class="st4" d="M926,806.2c-5.9,0-11.3-1.1-16-3.4c-4.9-2.3-9-5.4-12.3-9.4c-3.3-4-5.8-8.7-7.7-14
				c-1.8-5.4-2.7-11.2-2.7-17.3v-0.2c0-6,0.9-11.8,2.7-17.3c1.9-5.3,4.5-9.9,7.9-13.9c3.3-4.1,7.4-7.3,12.3-9.6
				c4.7-2.3,10.1-3.5,16-3.5c5.9,0,11.2,1.1,16,3.4c4.9,2.3,8.9,5.5,12.2,9.5c3.3,4,5.9,8.6,7.8,13.9c1.8,5.5,2.7,11.2,2.7,17.3v0.2
				c0,6.1-0.9,11.8-2.7,17.3c-1.9,5.3-4.5,10-7.9,14c-3.3,4.1-7.4,7.3-12.2,9.5C937.3,805,931.9,806.2,926,806.2z M926.2,788.6
				c2.6,0,4.9-0.6,7.1-1.8c2.1-1.3,3.9-3.1,5.5-5.5c1.6-2.3,2.8-5.1,3.7-8.4c0.9-3.3,1.3-6.9,1.3-10.9v-0.2c0-3.9-0.4-7.5-1.3-10.8
				c-0.9-3.3-2.2-6.1-3.8-8.5c-1.7-2.5-3.6-4.3-5.7-5.5c-2.2-1.3-4.5-1.9-6.9-1.9c-2.5,0-4.9,0.6-7.1,1.8c-2.1,1.3-3.9,3.1-5.5,5.5
				c-1.6,2.3-2.8,5.1-3.6,8.4c-0.9,3.3-1.4,6.9-1.4,10.8v0.2c0,3.9,0.5,7.5,1.4,10.8c0.9,3.4,2.1,6.2,3.7,8.5
				c1.6,2.4,3.5,4.2,5.6,5.5C921.3,787.9,923.7,788.6,926.2,788.6z"/>
			<polygon class="st3" points="254.9,753.2 254.9,770.3 232.3,770.3 232.2,753.2 			"/>
		</g>
		<g class="st0">
			<text transform="matrix(1 0 0 1 113.1034 804.2722)" class="st5"><tspan x="0" y="0" class="st6 st7 st8">Medilink</tspan><tspan x="573.8" y="0" class="st9 st7 st8"> </tspan><tspan x="615.3" y="0" class="st10 st7 st8">360</tspan></text>
		</g>
		<g>
			<text transform="matrix(1 0 0 1 171.8925 879.0915)" class="st11 st12 st13">Gateway to Medical Solutions</text>
		</g>
	</g>
	<path class="st3" d="M772.8,291l20,78.8C770,384,738.1,408.9,725.9,420c-13,11.8-41.6,23.9-50.7,29c-9.1,5.1-28.5,10.9-36,13.9
		c-6.9,2.7-16.3,9.6-23.3,12.4c-7.1,2.8-19.3,11.4-23.6,14.3c-3.7,2.5-12.8-1.2-11.5-9.4c1.3-8.3,10.1-20.2,16.4-25.1
		c7.6-6,24.2-10.7,28.6-13.2c5-2.8,9.4-7.8,8.4-12c-2.1-9-24.8-16.7-41.3-24.4c-4.1,2.8-22.8,14.2-26.5,16
		c-3.7,1.9-6.1,6.4-14.7,8.9c-8.9,2.5-13.2-5.7-10.7-8c2.5-2.3,10.6-5.6,13.8-9.3c3.2-3.6,7.5-6.1,17.6-14.5
		c-3.9-0.1-16.6,3.7-20.8,6c-4.2,2.3-15.2,10.3-19.2,14.2c-4,3.9-6.9,9.8-14.7,13.5c-11.7,5.6-17.5-4.4-15.5-6.3
		c2-1.9,16.6-17.2,28.2-26.3c-6.7,2.4-20.8,6.8-26.3,9.1c-5.5,2.3-15.1,7-25.3,7.3c-9.9,0.3-13.1-9.5-10.7-12.5
		c1.9-2.4,18.6-9.8,27.1-13.3c-3.7-1.1-11.1-2-15.6-4.1c-4.9-2.3-6.1-12,0.8-13.7c7.1-1.8,34.4-3.5,42.8-4.6
		c8.4-1.1,31.7-4.6,36.8-4.3c5.1,0.3,11.6,0.5,19.3,1c7.7,0.5,22.6-1.8,49.5-4.2c33.9-2.7,52.7-4.5,59.8-7.4
		c3.7-1.5,4.5-4.7,8.4-6.8c3.5-2,6.2,0,11.5-3.2C712.3,340.5,741.4,316.8,772.8,291z"/>
	<g>
		<g>
			<path class="st4" d="M478.8,491.5l29.7-12.2c0,0,36-26.4,41.6-25.5c5.6,0.9-17.2,20.3-17.2,20.3l-42.7,26.7L478.8,491.5z"/>
			<path class="st14" d="M478.8,491.5l29.7-12.2c0,0,36-26.4,41.6-25.5c5.6,0.9-17.2,20.3-17.2,20.3l-42.7,26.7L478.8,491.5z"/>
			<path class="st4" d="M551.7,448.2c-12.6,11.9-23.2,23.7-29.5,27.6c-3.9,2.4-13.7,7.2-23,12.8c-5.6,3.4-10.9,7.1-14.7,10.8
				c-10.1,9.8,19.1-4.5,19.1-4.5s33.8-12.4,45.6-22.9c11.9-10.6,23.5-18.9,23.4-24.5c0-0.5-0.1-1-0.2-1.4
				C571,441.1,563.2,437.4,551.7,448.2z"/>
			<path class="st14" d="M572.3,446c-7.3,3.1-19.1,13.8-24,17.6c-5.8,4.7-10.8,9.7-18.8,14.2c-9.3,5.3-23.7,11.2-23.7,11.2l-6.7-0.5
				c-5.6,3.4-10.9,7.1-14.7,10.8c-10.1,9.8,19.1-4.5,19.1-4.5s33.8-12.4,45.6-22.9c11.9-10.6,23.5-18.9,23.4-24.5
				C572.5,447,572.5,446.5,572.3,446z"/>
			<path class="st4" d="M571.3,452.9c-4.3,0.5-9.8,4.6-15.5,9.2c-4.2,3.3-8.4,6.9-12.4,9.4c-9.4,6-49.7,25.5-49.7,25.5l37.5,5.4
				c0,0,25-17.9,33.7-25.7c2.1-1.9,3.9-3.6,5.6-5.1c5.2-4.8,8.2-8,9.2-10.5C581.1,457.8,578.7,452,571.3,452.9z"/>
			<path class="st4" d="M521.3,492.2c0,0-17.5,1.9-26.7-1c-0.9-0.3-1.7-0.5-2.6-0.7l0,0c-4.4-1.1-8.6-1.5-13.9-1.5
				c-4.5,0-9.8,0.2-16.6,0.5c-16.3,0.6-21.3,0.7-27-3.8c-5.7-4.5-5.2-9.6-3.3-14.7c1.8-4.6,13.1-26,1.4-35.8c-2.4-2-6-1.4-7.7,1.1
				c-3.8,5.7-10.7,16-13.5,20.3c-4,6.1-6.6,15.6-12.2,22.7c-3.7,4.9-8.8,8.4-14.5,17.7c-2.7,4.4-5.6,10.1-8.6,17.8l-9.2,10.7
				l-2.1,2.4l-3.5,4l5.3-1.2l77.9-17.3l42.9-2.6l1.4-0.8L521.3,492.2z"/>
			<path class="st14" d="M521.3,492.2c0,0-17.5,1.9-26.7-1c-0.9-0.3-1.7-0.5-2.6-0.7l0,0c-4.4-1.1-8.6-1.5-13.9-1.5
				c-24.2,2.8-46.2,2.5-65.7,3c-10.9,0.3-20.1,2.3-27.6,5.1c-2.7,4.4-5.6,10.1-8.6,17.8l-9.2,10.7l75.2-14.2l46.8-1.3L521.3,492.2z"
				/>
			<path class="st14" d="M565.9,464.3c-3.4-2.3-6.6-2.8-10-2.2c-4.2,3.3-8.4,6.9-12.4,9.4c-9.4,6-49.7,25.5-49.7,25.5l37.5,5.4
				c0,0,25-17.9,33.7-25.7c2.1-1.9,3.9-3.6,5.6-5.1C570.1,469.1,568.7,466.2,565.9,464.3z"/>
			<path class="st4" d="M565.1,476.8L565.1,476.8c-1.1,3.4-23.5,21.7-30.3,26.3s-29.6,16.4-43,22.3c-13.3,5.9-74.9,33.3-74.9,33.3
				l-0.6,0.4l-20.4,13.7c-15.9-12-31.9-24.3-47.2-37.1c7.8-4.2,14.3-8,19-11.1c0,0,0,0,0,0c0.1-0.1,0.2-0.1,0.3-0.2
				c2-1.3,4-2.6,6-3.8c34-20.9,51.4-19.4,63-19.5c7.6-0.1,28.9-3,46.8-5.6c2.3-0.3,4.5-0.7,6.7-1h0c4.6-0.7,8.8-1.4,12.3-1.9
				c0,0,0,0,0,0c0.1,0,0.3,0,0.4-0.1h0c0.1,0,0.2,0,0.3-0.1h0c2.2-0.3,4.1-0.6,5.5-0.9c2.9-0.5,5.6-1.2,8.2-2.2c0,0,0,0,0,0
				c2.9-1.1,5.7-2.3,8.2-3.6c0,0,0.1,0,0.1-0.1c0,0,0,0,0,0h0c4.8-2.5,8.5-5.1,10.4-6.3c3.8-2.4,13.3-10.5,13.3-10.5
				c2.5-1.5,4.7-2.4,6.5-2.8C564.7,464.2,566,473.9,565.1,476.8z"/>
		</g>
	</g>
	<g class="st15">
		<path class="st16" d="M465,528.1c6.1-0.7,12.2-2.1,18.1-4c5.9-1.9,11.2-5,16.9-7.5c0.1-0.1,0.3,0.1,0.2,0.2
			c-4.6,3.7-10.7,6.1-16.2,8c-6.2,2.1-12.4,3.1-18.9,3.5C464.9,528.3,464.9,528.1,465,528.1z"/>
		<path class="st16" d="M459.6,530.8c-0.6,0.3-0.4,1.3,0.3,1.1c1.5-0.4,3.2-0.2,4.7-0.8c0.2-0.1,0.3-0.4,0.1-0.6
			C463.1,529.6,461.1,530.2,459.6,530.8z"/>
		<path class="st16" d="M469.7,533.9c-2.1-0.7-4.7-0.2-6.8,0.2c-2.5,0.5-5.1,1.1-7.4,2.1c-0.4,0.2-0.1,0.8,0.3,0.7
			c2.3-0.6,4.6-1.2,7-1.6c2.3-0.4,4.9-0.2,7-1.1C469.8,534.2,469.9,534,469.7,533.9z"/>
		<path class="st16" d="M414.1,560.8c-0.1,0.3,0.4,0.5,0.5,0.2c2.9-5.7,11.1-9,16.3-12.3c5.9-3.7,11.9-7.3,18.2-10.2
			c0.1-0.1,0-0.2-0.1-0.2c-7.7,2.6-14.4,6.8-21.2,11.1C423.3,552.4,416,555.3,414.1,560.8z"/>
		<path class="st16" d="M442,538.9c2.9-1,5.6-2.4,8.5-3.4c2.9-1,5.9-1.6,8.7-2.8c0.2-0.1,0.2-0.4,0-0.4c-5.7,0.4-12.4,3-17.3,6.1
			C441.6,538.6,441.7,539,442,538.9z"/>
		<path class="st16" d="M443.7,535.1c5-2.6,10.1-3.8,15.5-5c0.4-0.1,0.3-0.7-0.1-0.6c-5.5,0.4-10.9,2.6-15.6,5.4
			C443.3,534.9,443.5,535.2,443.7,535.1z"/>
		<path class="st16" d="M447.2,530.3c3-1.3,6-1.6,9.2-2c0.3,0,0.4-0.5,0-0.5c-3.2-0.3-6.6,0.8-9.4,2.2
			C446.9,530.1,447,530.4,447.2,530.3z"/>
		<path class="st16" d="M449.8,526.5c1.9,0.1,4.4-0.4,5.8-1.6c0.1-0.1,0-0.3-0.1-0.3c-0.9,0-1.8,0.4-2.7,0.6c-1,0.3-2.1,0.4-3.1,0.7
			C449.4,526.1,449.5,526.5,449.8,526.5z"/>
		<path class="st16" d="M455.1,522.3c0.2-0.1,0.1-0.3,0-0.3c-1.2-0.1-2.4,0.1-3.6,0.3c-0.4,0.1-0.3,0.7,0.1,0.7
			C452.8,522.8,453.9,522.7,455.1,522.3z"/>
		<path class="st16" d="M420.4,552.2c3.5-1.9,6.8-4.4,10.2-6.5c3.4-2.1,7.1-3.8,10.4-6.1c0.1-0.1,0-0.2-0.1-0.2
			c-3.8,1.3-7.4,3.5-10.8,5.5c-3.4,2.1-7.1,4.2-10,6.9C420,552,420.2,552.3,420.4,552.2z"/>
		<path class="st16" d="M432.7,540.5c2.7-1.2,5.3-2.5,7.9-4.1c0.1-0.1,0-0.3-0.1-0.2c-2.8,1.1-5.4,2.5-8,3.9
			C432.2,540.3,432.4,540.7,432.7,540.5z"/>
		<path class="st16" d="M437.2,535.4c0.6-0.3,1.1-0.6,1.7-1c0.2-0.1,0-0.3-0.2-0.3c-0.6,0.3-1.2,0.5-1.8,0.8
			C436.6,535.1,436.9,535.5,437.2,535.4z"/>
	</g>
	<path class="st17" d="M371.8,537.9c0,0,32.9-10.8,52-23.1c20.2-13,49.1-13.4,56.3-14.4c20.2-2.9,22.2,0.2,37.5-11.5"/>
	<path class="st18" d="M704.4,211.9c-65-19.4-143.2,4.1-180.7,87.8c-37.6-83.7-115.9-107.1-180.9-87.8
		C278.5,231.1,235,289,237.9,361.2c2.8,69.4,52.1,125.4,110.8,174.5c15.3,12.8,31.3,25.2,47.2,37.1c49.3,37.1,98.4,70.9,127.8,104.7
		c75.2-86.8,280.1-172.8,285.7-316.3C812.2,289,768.7,231.1,704.4,211.9z M771.2,359.6c-6.1,125.9-191.8,218.2-247.5,310.6
		c-22-36.4-64.1-72.7-107.4-111.1c-11.7-10.4-23.5-20.9-35.1-31.6c-1.4-1.3-2.8-2.6-4.2-3.9c-1-1-2-1.9-3.1-2.9
		c-0.5-0.5-1-1-1.5-1.5c-50.4-48-93.4-100-96.3-159.6c-2.7-57.3,28.8-102.5,79.6-119.4c60.8-20.2,138.7,3.3,168.1,74.3
		c29.2-71,107.3-94.5,167.9-74.3C742.4,257.1,774.1,302.4,771.2,359.6z"/>
	<path class="st19" d="M415.4,514.8c-1.3-0.1-2.5-0.5-3.7-1.1c-0.1-0.1-0.2,0.1-0.1,0.2c2,1.3,5.1,2.1,7.3,0.8
		c0.1-0.1,0.1-0.2-0.1-0.2C417.7,514.6,416.6,514.9,415.4,514.8z"/>
	<path class="st19" d="M407,507.6c1,3,4.3,4.5,7,5.5c1.3,0.5,2.7,0.9,4.2,0.8c1.6-0.1,2.8-0.9,4.3-1.3c0.1,0,0.1-0.2,0-0.2
		c-0.9-0.1-1.5-0.1-2.3,0.1c-1.9,0.4-3.2,0.5-5.1-0.1c-2.6-0.9-6.4-2.4-7.7-4.9C407.3,507.2,406.9,507.4,407,507.6z"/>
	<g class="st20">
		<path class="st21" d="M551.3,471.2c-3.8,1.4-7.5,4-10.3,7c-0.1,0.1,0.1,0.3,0.2,0.2c3.2-2.8,6.4-4.9,10.2-6.9
			C551.5,471.4,551.4,471.2,551.3,471.2z"/>
		<path class="st21" d="M549.7,473c-2.4,0.8-4.7,2.7-6.5,4.5c-0.1,0.1,0,0.3,0.1,0.2c1-0.8,2-1.6,3.1-2.4c1.1-0.7,2.3-1.3,3.4-2
			C550,473.1,549.9,472.9,549.7,473z"/>
		<path class="st21" d="M548,474.8c-0.8,0.2-1.5,0.9-2.1,1.5c-0.2,0.1,0,0.4,0.2,0.3c0.6-0.6,1.5-1,2-1.6
			C548.1,474.9,548.1,474.8,548,474.8z"/>
		<path class="st21" d="M547.7,476.3c0.5-0.1,1-0.3,1.2-0.8c0-0.1-0.1-0.1-0.1-0.1c-0.4,0.1-0.8,0.4-1.2,0.5
			C547.4,476,547.5,476.4,547.7,476.3z"/>
	</g>
</g>
</svg>
